<svg width="40" height="41" viewBox="0 0 40 41" fill="none" xmlns="http://www.w3.org/2000/svg">
<path d="M19.998 40.0994C31.0437 40.0994 39.998 31.1451 39.998 20.0994C39.998 9.05367 31.0437 0.0993652 19.998 0.0993652C8.95235 0.0993652 -0.00195312 9.05367 -0.00195312 20.0994C-0.00195312 31.1451 8.95235 40.0994 19.998 40.0994Z" fill="#393939"/>
<path d="M26.3336 17.7312L25.9313 21.2153C25.9146 21.3743 25.8401 21.5216 25.722 21.6292C25.6038 21.7369 25.4502 21.7975 25.2904 21.7994H21.654L21.6359 32.1289C21.6371 32.2513 21.5901 32.3693 21.505 32.4573C21.42 32.5454 21.3037 32.5964 21.1813 32.5994H17.4972C17.436 32.5994 17.3753 32.5871 17.319 32.5631C17.2626 32.5391 17.2117 32.504 17.1692 32.4599C17.1268 32.4157 17.0937 32.3634 17.0719 32.3062C17.0502 32.2489 17.0402 32.1878 17.0427 32.1266V21.7994H14.3154C14.2297 21.7985 14.1451 21.7807 14.0663 21.7471C13.9875 21.7135 13.9161 21.6647 13.8562 21.6035C13.7962 21.5423 13.7489 21.4699 13.717 21.3904C13.685 21.3109 13.6691 21.2259 13.67 21.1403L13.6563 17.6562C13.6551 17.5702 13.6709 17.4849 13.7026 17.405C13.7344 17.3251 13.7816 17.2523 13.8416 17.1907C13.9015 17.129 13.973 17.0798 14.052 17.0458C14.1309 17.0118 14.2158 16.9937 14.3018 16.9925H17.0427V13.6289C17.0427 9.72436 19.3609 7.59937 22.7609 7.59937H25.5472C25.6334 7.60025 25.7185 7.61814 25.7977 7.652C25.8769 7.68587 25.9487 7.73504 26.0089 7.79669C26.0691 7.85835 26.1165 7.93128 26.1484 8.0113C26.1803 8.09132 26.1962 8.17685 26.195 8.263V11.1948C26.1962 11.281 26.1803 11.3665 26.1484 11.4465C26.1165 11.5265 26.0691 11.5995 26.0089 11.6611C25.9487 11.7228 25.8769 11.772 25.7977 11.8058C25.7185 11.8397 25.6334 11.8576 25.5472 11.8585H23.8381C21.9904 11.8585 21.6313 12.7675 21.6313 14.0812V16.9925H25.6927C25.785 16.9937 25.8761 17.0144 25.9599 17.0533C26.0437 17.0921 26.1183 17.1483 26.1789 17.2181C26.2394 17.2878 26.2845 17.3696 26.3111 17.4581C26.3378 17.5465 26.3455 17.6396 26.3336 17.7312Z" fill="white"/>
</svg>
