<svg width="40" height="41" viewBox="0 0 40 41" fill="none" xmlns="http://www.w3.org/2000/svg">
<g clip-path="url(#clip0_1_3729)">
<path d="M20.002 0.0993652C16.0463 0.0993652 12.1795 1.27233 8.8905 3.46991C5.60161 5.66761 3.03817 8.79121 1.52433 12.4457C0.0105984 16.1002 -0.38546 20.1216 0.386296 24.0011C1.15794 27.8808 3.06272 31.4444 5.8598 34.2415C8.65687 37.0385 12.2206 38.9434 16.1002 39.7151C19.9798 40.4867 24.0011 40.0907 27.6556 38.577C31.3102 37.0631 34.4337 34.4997 36.6314 31.2108C38.829 27.9218 40.002 24.055 40.002 20.0994C40.002 14.795 37.8948 9.70796 34.1441 5.95727C30.3933 2.20646 25.3064 0.0993652 20.002 0.0993652ZM29.1799 28.9422C29.0949 29.0835 28.9825 29.2065 28.8495 29.304C28.7164 29.4016 28.5652 29.4716 28.4048 29.5102C28.2445 29.5488 28.078 29.5552 27.9151 29.5289C27.7522 29.5026 27.5961 29.4443 27.4561 29.3572C22.7634 26.484 16.8575 25.8456 9.89823 27.4258C9.73987 27.4636 9.5757 27.4696 9.41502 27.4433C9.25446 27.4171 9.10052 27.3593 8.96253 27.2732C8.82442 27.1871 8.70481 27.0744 8.61056 26.9417C8.51632 26.8089 8.44954 26.6588 8.41382 26.5C8.37577 26.3407 8.36972 26.1755 8.39566 26.0138C8.42173 25.852 8.47933 25.6971 8.56531 25.5577C8.65129 25.4184 8.76403 25.2973 8.89679 25.2016C9.02966 25.1058 9.18011 25.0371 9.33951 24.9996C16.9533 23.2597 23.4976 24.01 28.765 27.2343C29.046 27.4061 29.2475 27.6824 29.3252 28.0024C29.4031 28.3226 29.3508 28.6605 29.1799 28.9422ZM31.6221 23.4992C31.3991 23.8423 31.0527 24.0866 30.6547 24.1817C30.2566 24.2767 29.8373 24.2152 29.4832 24.01C23.4142 20.6245 16.2496 19.7864 9.56302 21.6795C9.35498 21.7956 9.12356 21.8635 8.88585 21.8784C8.64803 21.8934 8.40998 21.8549 8.18903 21.7658C7.96808 21.6767 7.76993 21.5394 7.60902 21.3637C7.44811 21.1881 7.32849 20.9786 7.25903 20.7508C7.18957 20.5229 7.172 20.2824 7.2076 20.0468C7.24321 19.8113 7.33105 19.5867 7.46474 19.3896C7.59843 19.1924 7.77459 19.0277 7.98018 18.9074C8.18589 18.7872 8.4158 18.7145 8.65315 18.6948C12.3853 17.6204 16.2946 17.3027 20.1513 17.7605C24.008 18.2182 27.7344 19.4421 31.1113 21.3604C31.4545 21.5834 31.6987 21.9297 31.7937 22.3277C31.8888 22.7258 31.8274 23.1452 31.6221 23.4992ZM31.8296 17.8328C25.4449 14.002 14.7666 13.6508 8.60533 15.5183C8.1312 15.6623 7.61926 15.612 7.18224 15.3784C6.74523 15.145 6.41886 14.7475 6.27494 14.2733C6.13101 13.7993 6.18128 13.2873 6.41479 12.8502C6.64819 12.4133 7.04576 12.0869 7.51989 11.943C14.591 9.80409 26.3228 10.2191 33.7451 14.6085C34.1266 14.8816 34.3914 15.2883 34.4868 15.7478C34.5821 16.2072 34.501 16.6857 34.2596 17.0881C34.0181 17.4904 33.6341 17.7872 33.1839 17.9192C32.7336 18.0513 32.2501 18.0091 31.8296 17.8009V17.8328Z" fill="#393939"/>
</g>
<defs>
<clipPath id="clip0_1_3729">
<rect width="40" height="40" fill="white" transform="translate(0 0.0993652)"/>
</clipPath>
</defs>
</svg>
