<svg width="40" height="41" viewBox="0 0 40 41" fill="none" xmlns="http://www.w3.org/2000/svg">
<path fill-rule="evenodd" clip-rule="evenodd" d="M17.2691 5.15378C17.2691 5.18929 16.2376 5.20786 14.2783 5.20786C11.6545 5.20786 11.2875 5.21796 11.2875 5.28932C11.2875 5.36002 11.0909 5.37077 9.83098 5.37077C8.57107 5.37077 8.37445 5.38185 8.37445 5.45223C8.37445 5.52163 8.23869 5.53368 7.46439 5.53368C6.68977 5.53368 6.55401 5.54606 6.55401 5.61514C6.55401 5.68324 6.45009 5.69659 5.92983 5.69659C5.39646 5.69659 5.30565 5.7093 5.30565 5.78228C5.30565 5.84908 5.25228 5.86569 5.05847 5.85885C4.60999 5.84289 4.52541 5.85592 4.52541 5.94096C4.52541 6.00449 4.45613 6.02241 4.21332 6.02241C3.97052 6.02241 3.90123 6.04066 3.90123 6.10387C3.90123 6.16089 3.8463 6.18532 3.71928 6.18532C3.59195 6.18532 3.53702 6.21009 3.53702 6.26678C3.53702 6.32119 3.48521 6.34823 3.38097 6.34823C3.27705 6.34823 3.22493 6.3756 3.22493 6.42969C3.22493 6.4841 3.17312 6.51114 3.06888 6.51114C2.96495 6.51114 2.91283 6.53851 2.91283 6.5926C2.91283 6.63756 2.87788 6.67406 2.83481 6.67406C2.79205 6.67406 2.75679 6.71087 2.75679 6.75551C2.75679 6.80992 2.70498 6.83697 2.60074 6.83697C2.49682 6.83697 2.4447 6.86433 2.4447 6.91842C2.4447 6.96338 2.40974 6.99988 2.36667 6.99988C2.32392 6.99988 2.28865 7.03669 2.28865 7.08133C2.28865 7.12629 2.2537 7.16279 2.21063 7.16279C2.16787 7.16279 2.1326 7.1996 2.1326 7.24424C2.1326 7.2892 2.09765 7.3257 2.05458 7.3257C2.01182 7.3257 1.97656 7.36251 1.97656 7.40715C1.97656 7.45211 1.9416 7.48861 1.89854 7.48861C1.85578 7.48861 1.82051 7.52542 1.82051 7.57006C1.82051 7.61502 1.78556 7.65152 1.74249 7.65152C1.69068 7.65152 1.66447 7.70593 1.66447 7.81443C1.66447 7.92325 1.63856 7.97734 1.58644 7.97734C1.54369 7.97734 1.50842 8.01415 1.50842 8.05879C1.50842 8.10375 1.47347 8.14025 1.4304 8.14025C1.37859 8.14025 1.35237 8.19466 1.35237 8.30316C1.35237 8.41198 1.32647 8.46607 1.27435 8.46607C1.22254 8.46607 1.19633 8.52048 1.19633 8.62898C1.19633 8.7378 1.17042 8.79189 1.1183 8.79189C1.064 8.79189 1.04028 8.84923 1.04028 8.98217C1.04028 9.11478 1.01687 9.17212 0.962258 9.17212C0.901712 9.17212 0.884235 9.24445 0.884235 9.49794C0.884235 9.75143 0.86707 9.82376 0.806212 9.82376C0.745042 9.82376 0.728189 9.89903 0.728189 10.1766C0.728189 10.4542 0.711648 10.5298 0.650166 10.5298C0.587124 10.5298 0.572143 10.6171 0.572143 10.9912C0.572143 11.3652 0.557475 11.4529 0.49412 11.4529C0.429205 11.4529 0.416097 11.5614 0.416097 12.1045C0.416097 12.6476 0.403301 12.7561 0.338074 12.7561C0.27191 12.7561 0.260051 12.8979 0.260051 13.7066C0.260051 14.5149 0.248503 14.6567 0.182028 14.6567C0.117425 14.6567 0.104005 14.7619 0.104005 15.2767C0.104005 15.7218 0.0859034 15.9045 0.0390895 15.9241C-0.0130299 15.9459 -0.0130299 15.9524 0.0390895 15.9557C0.121794 15.9612 0.134902 18.1322 0.0521974 18.1322C0.0184915 18.1322 7.80221e-05 18.7115 7.80221e-05 19.7613C7.80221e-05 20.8111 0.0184915 21.3904 0.0521974 21.3904C0.0855913 21.3904 0.104005 21.9967 0.104005 23.1009C0.104005 24.5854 0.114304 24.8115 0.182028 24.8115C0.248503 24.8115 0.260051 24.9562 0.260051 25.789C0.260051 26.6218 0.271598 26.7664 0.338074 26.7664C0.403301 26.7664 0.416097 26.8749 0.416097 27.4181C0.416097 27.9612 0.429205 28.0697 0.49412 28.0697C0.557163 28.0697 0.572143 28.1541 0.572143 28.504C0.572143 28.854 0.587436 28.9387 0.650166 28.9387C0.71196 28.9387 0.728189 29.0162 0.728189 29.313C0.728189 29.5955 0.747539 29.6949 0.806212 29.7184C0.861453 29.7405 0.884235 29.8301 0.884235 30.023C0.884235 30.2296 0.903273 30.296 0.962258 30.296C1.01438 30.296 1.04028 30.3504 1.04028 30.4589C1.04028 30.5678 1.0665 30.6219 1.1183 30.6219C1.17042 30.6219 1.19633 30.6763 1.19633 30.7848C1.19633 30.8936 1.22254 30.9477 1.27435 30.9477C1.32647 30.9477 1.35237 31.0021 1.35237 31.1106C1.35237 31.2194 1.37859 31.2735 1.4304 31.2735C1.48252 31.2735 1.50842 31.3279 1.50842 31.4364C1.50842 31.5452 1.53464 31.5993 1.58644 31.5993C1.62951 31.5993 1.66447 31.6361 1.66447 31.6808C1.66447 31.7257 1.69973 31.7622 1.74249 31.7622C1.78556 31.7622 1.82051 31.799 1.82051 31.8437C1.82051 31.8886 1.85578 31.9251 1.89854 31.9251C1.9416 31.9251 1.97656 31.962 1.97656 32.0066C1.97656 32.0516 2.01182 32.088 2.05458 32.088C2.09765 32.088 2.1326 32.1249 2.1326 32.1695C2.1326 32.2145 2.16787 32.251 2.21063 32.251C2.2537 32.251 2.29177 32.2878 2.2952 32.3324C2.30769 32.4891 2.31518 32.5139 2.36199 32.5589C2.38946 32.5849 2.39445 32.5768 2.37416 32.54C2.35481 32.5048 2.36293 32.4605 2.39195 32.4416C2.42098 32.423 2.4447 32.4458 2.4447 32.4921C2.4447 32.5387 2.47996 32.5768 2.52272 32.5768C2.56579 32.5768 2.60074 32.6136 2.60074 32.6582C2.60074 32.7126 2.65286 32.7397 2.75679 32.7397C2.86103 32.7397 2.91283 32.7671 2.91283 32.8211C2.91283 32.8661 2.9481 32.9026 2.99086 32.9026C3.03393 32.9026 3.06888 32.9394 3.06888 32.9841C3.06888 33.0411 3.12381 33.0655 3.25114 33.0655C3.37816 33.0655 3.43309 33.0903 3.43309 33.147C3.43309 33.2014 3.48521 33.2284 3.58914 33.2284C3.69057 33.2284 3.74518 33.2561 3.74518 33.3069C3.74518 33.362 3.81884 33.3903 3.99236 33.4021C4.1559 33.4132 4.23486 33.4415 4.22643 33.4865C4.21707 33.5353 4.30882 33.5542 4.55132 33.5542C4.81722 33.5542 4.88963 33.5718 4.88963 33.6357C4.88963 33.7028 4.98201 33.7171 5.40957 33.7171C5.83745 33.7171 5.92983 33.7318 5.92983 33.7986C5.92983 33.8673 6.05061 33.8801 6.70444 33.8801C7.34517 33.8801 7.48436 33.8944 7.50902 33.9615C7.53461 34.0306 7.71718 34.043 8.71088 34.043C9.71801 34.043 9.8831 34.0547 9.8831 34.1244C9.8831 34.1955 10.149 34.2059 11.9635 34.2059C13.3161 34.2059 14.0442 34.2251 14.0442 34.2603C14.0442 34.2961 16.0641 34.3147 19.9999 34.3147C23.9357 34.3147 25.9559 34.2961 25.9559 34.2603C25.9559 34.2251 26.6752 34.2059 28.0104 34.2059C29.8021 34.2059 30.0649 34.1955 30.0649 34.1244C30.0649 34.0547 30.2296 34.043 31.2352 34.043C32.2411 34.043 32.4055 34.0316 32.4055 33.9615C32.4055 33.8928 32.5298 33.8801 33.212 33.8801C33.8939 33.8801 34.0181 33.8677 34.0181 33.7986C34.0181 33.7318 34.1105 33.7171 34.5384 33.7171C34.9772 33.7171 35.0583 33.7038 35.0583 33.6318C35.0583 33.5673 35.1067 33.5484 35.2534 33.5555C35.6332 33.5738 35.7346 33.5565 35.7346 33.4728C35.7346 33.4125 35.7952 33.3913 35.9687 33.3913C36.1422 33.3913 36.2028 33.3705 36.2028 33.3099C36.2028 33.2558 36.2549 33.2284 36.3588 33.2284C36.4627 33.2284 36.5149 33.2014 36.5149 33.147C36.5149 33.0903 36.5698 33.0655 36.6968 33.0655C36.8242 33.0655 36.8791 33.0411 36.8791 32.9841C36.8791 32.93 36.9309 32.9026 37.0351 32.9026C37.1391 32.9026 37.1912 32.8756 37.1912 32.8211C37.1912 32.7765 37.2261 32.7397 37.2692 32.7397C37.312 32.7397 37.3472 32.7032 37.3472 32.6582C37.3472 32.6136 37.3822 32.5768 37.4252 32.5768C37.468 32.5768 37.5033 32.5403 37.5033 32.4953C37.5033 32.4507 37.5382 32.4139 37.5813 32.4139C37.624 32.4139 37.6593 32.3774 37.6593 32.3324C37.6593 32.2783 37.7111 32.251 37.8154 32.251C37.9539 32.251 37.9714 32.233 37.9714 32.088C37.9714 31.9795 37.9973 31.9251 38.0494 31.9251C38.0922 31.9251 38.1274 31.8886 38.1274 31.8437C38.1274 31.799 38.1624 31.7622 38.2055 31.7622C38.2482 31.7622 38.2835 31.7257 38.2835 31.6808C38.2835 31.6361 38.3184 31.5993 38.3615 31.5993C38.4043 31.5993 38.4395 31.5628 38.4395 31.5179C38.4395 31.4732 38.4745 31.4364 38.5176 31.4364C38.5694 31.4364 38.5956 31.3823 38.5956 31.2735C38.5956 31.165 38.6215 31.1106 38.6736 31.1106C38.7254 31.1106 38.7516 31.0565 38.7516 30.9477C38.7516 30.8392 38.7775 30.7848 38.8297 30.7848C38.884 30.7848 38.9077 30.7274 38.9077 30.5948C38.9077 30.4622 38.9311 30.4049 38.9857 30.4049C39.0447 30.4049 39.0637 30.3377 39.0637 30.1276C39.0637 29.9031 39.0787 29.8562 39.1417 29.8813C39.206 29.907 39.2198 29.8513 39.2198 29.5613C39.2198 29.2853 39.2363 29.2101 39.2978 29.2101C39.3602 29.2101 39.3758 29.1286 39.3758 28.8028C39.3758 28.477 39.3914 28.3955 39.4538 28.3955C39.5184 28.3955 39.5319 28.29 39.5319 27.7709C39.5319 27.2522 39.545 27.1467 39.6099 27.1467C39.6757 27.1467 39.6879 27.017 39.6879 26.3047C39.6879 25.5928 39.6998 25.4631 39.7659 25.4631C39.833 25.4631 39.844 25.282 39.844 24.1599C39.844 23.0377 39.8546 22.8566 39.922 22.8566C39.9903 22.8566 40 22.4734 40 19.7342C40 16.9947 39.9903 16.6116 39.922 16.6116C39.8546 16.6116 39.844 16.4275 39.844 15.2796C39.844 14.1454 39.8321 13.9428 39.7659 13.9161C39.7013 13.8903 39.6879 13.745 39.6879 13.0761C39.6879 12.3935 39.6757 12.2674 39.6099 12.2674C39.5453 12.2674 39.5319 12.1677 39.5319 11.6972C39.5319 11.2147 39.5191 11.127 39.4498 11.127C39.3858 11.127 39.3699 11.0713 39.3764 10.869C39.3917 10.4008 39.3792 10.3125 39.2978 10.3125C39.2354 10.3125 39.2198 10.231 39.2198 9.90522C39.2198 9.5794 39.2042 9.49794 39.1417 9.49794C39.0871 9.49794 39.0637 9.4406 39.0637 9.30799C39.0637 9.17505 39.04 9.11771 38.9857 9.11771C38.918 9.11771 38.8699 8.83359 38.9008 8.61757C38.9039 8.59607 38.8696 8.59346 38.825 8.61138C38.7735 8.63191 38.7476 8.61627 38.7538 8.5687C38.7763 8.3996 38.7473 8.30316 38.6736 8.30316C38.6305 8.30316 38.5956 8.26667 38.5956 8.2217C38.5956 8.17706 38.5603 8.14025 38.5176 8.14025C38.4654 8.14025 38.4395 8.08616 38.4395 7.97734C38.4395 7.86884 38.4133 7.81443 38.3615 7.81443C38.3184 7.81443 38.2835 7.77793 38.2835 7.73297C38.2835 7.68833 38.2482 7.65152 38.2055 7.65152C38.1624 7.65152 38.1274 7.61502 38.1274 7.57006C38.1274 7.52542 38.0922 7.48861 38.0494 7.48861C38.0064 7.48861 37.9714 7.44071 37.9714 7.38174C37.9714 7.30908 37.9464 7.28497 37.8934 7.30615C37.8394 7.32765 37.8154 7.30256 37.8154 7.22469C37.8154 7.14682 37.791 7.12173 37.7373 7.14324C37.6877 7.16311 37.6593 7.14258 37.6593 7.0872C37.6593 7.0393 37.624 6.99988 37.5813 6.99988C37.5382 6.99988 37.5033 6.96338 37.5033 6.91842C37.5033 6.87378 37.4705 6.83697 37.4305 6.83697C37.3909 6.83697 37.3447 6.80047 37.3282 6.75551C37.312 6.71087 37.2392 6.67406 37.1668 6.67406C37.0844 6.67406 37.0351 6.64375 37.0351 6.5926C37.0351 6.53851 36.983 6.51114 36.8791 6.51114C36.7748 6.51114 36.723 6.4841 36.723 6.42969C36.723 6.373 36.6681 6.34823 36.5408 6.34823C36.4137 6.34823 36.3588 6.3238 36.3588 6.26678C36.3588 6.21269 36.3067 6.18532 36.2028 6.18532C36.0989 6.18532 36.0467 6.15828 36.0467 6.10387C36.0467 6.04229 35.9831 6.02241 35.7868 6.02241C35.5901 6.02241 35.5265 6.00254 35.5265 5.94096C35.5265 5.8758 35.4484 5.8595 35.1364 5.8595C34.8243 5.8595 34.7462 5.84321 34.7462 5.77805C34.7462 5.70995 34.6389 5.69659 34.0905 5.69659C33.5291 5.69659 33.4392 5.68486 33.4648 5.61514C33.4907 5.54476 33.3696 5.53368 32.56 5.53368C31.7639 5.53368 31.6253 5.52163 31.6253 5.45223C31.6253 5.38185 31.4318 5.37077 30.195 5.37077C28.9582 5.37077 28.7647 5.3597 28.7647 5.28932C28.7647 5.21796 28.3917 5.20786 25.7218 5.20786C23.7278 5.20786 22.6789 5.18929 22.6789 5.15378C22.6789 5.11826 21.7426 5.09937 19.974 5.09937C18.2054 5.09937 17.2691 5.11826 17.2691 5.15378ZM16.5831 13.8424C16.8209 13.9917 17.0253 14.1138 17.0375 14.1138C17.05 14.1138 17.2965 14.2605 17.5855 14.4397C17.8745 14.6189 18.1192 14.7655 18.1295 14.7655C18.1395 14.7655 18.5028 14.9854 18.9366 15.2542C19.3704 15.523 19.7334 15.7429 19.7437 15.7429C19.7536 15.7429 20.0798 15.9384 20.468 16.1773C20.8566 16.4161 21.183 16.6116 21.1933 16.6116C21.2039 16.6116 21.5073 16.795 21.8674 17.0189C22.2276 17.243 22.5316 17.4261 22.5428 17.4261C22.554 17.4261 22.9183 17.6461 23.3521 17.9149C23.7859 18.1837 24.1488 18.4036 24.1588 18.4036C24.1685 18.4036 24.4731 18.587 24.8358 18.8109C25.1981 19.035 25.503 19.2181 25.5133 19.2181C25.5236 19.2181 25.6803 19.309 25.861 19.4201C26.1737 19.6124 26.2651 19.6909 26.267 19.7688C26.2679 19.8023 25.8295 20.0848 25.3055 20.3885C25.1625 20.4716 24.8152 20.6821 24.5333 20.8564C24.2518 21.0307 24.0137 21.1731 24.004 21.1731C23.994 21.1731 23.6745 21.364 23.2934 21.5973C22.9126 21.8306 22.2613 22.2248 21.8465 22.4734C21.4318 22.722 20.7583 23.1299 20.3501 23.3798C19.9421 23.6297 19.5995 23.834 19.5885 23.834C19.5779 23.834 19.2143 24.054 18.7805 24.3228C18.3467 24.5916 17.9816 24.8115 17.9694 24.8115C17.9572 24.8115 17.8006 24.905 17.6211 25.019C17.442 25.1331 17.1314 25.3201 16.9311 25.4348C16.7307 25.5492 16.4626 25.7108 16.335 25.7935C16.2073 25.8763 16.0847 25.9323 16.0619 25.9177C16.0123 25.8857 16.006 13.6587 16.0554 13.6069C16.1109 13.5492 16.1287 13.557 16.5831 13.8424Z" fill="#393939"/>
</svg>
